<svg width="180" height="41" viewBox="0 0 180 41" fill="none" xmlns="http://www.w3.org/2000/svg">
<g clip-path="url(#clip0_45_440)">
<path d="M48.9649 26.2051L51.2007 23.5381C52.7737 24.81 54.371 25.6176 56.3351 25.6176C57.9081 25.6176 58.8162 25.0059 58.8162 24.0025V23.954C58.8162 22.9991 58.2264 22.4863 55.352 21.7756C51.8635 20.9196 49.652 19.9162 49.652 16.5385V16.4901C49.652 13.383 52.1331 11.3257 55.6723 11.3257C58.2041 11.3257 60.2919 12.109 62.0615 13.5041L60.0953 16.3427C58.5466 15.2908 57.0973 14.6549 55.6237 14.6549C54.15 14.6549 53.4122 15.2908 53.4122 16.1469V16.1953C53.4122 17.3461 54.15 17.6631 57.1216 18.4464C60.6101 19.3771 62.5764 20.6006 62.5764 23.5866V23.635C62.5764 27.0369 59.9716 28.9448 56.2622 28.9448C53.6351 28.9468 51.0304 28.0666 48.9649 26.2051Z" fill="white"/>
<path d="M64.8385 22.2177V22.1693C64.8385 18.4 67.8852 15.3413 71.9879 15.3413C76.0419 15.3413 79.0885 18.3273 79.0885 22.1208V22.1693C79.0885 25.9386 76.0419 28.9973 71.9392 28.9973C67.8852 28.9953 64.8385 26.0093 64.8385 22.2177ZM75.4034 22.2177V22.1693C75.4034 20.2352 74.0027 18.5474 71.9392 18.5474C69.8007 18.5474 68.5237 20.1625 68.5237 22.1208V22.1693C68.5237 24.1034 69.9243 25.7912 71.9879 25.7912C74.1264 25.7892 75.4034 24.1741 75.4034 22.2177Z" fill="white"/>
<path d="M81.152 22.2177V22.1693C81.152 18.4242 84.0264 15.3413 88.0561 15.3413C90.5372 15.3413 92.0615 16.1731 93.3142 17.544L91.0297 19.9909C90.1703 19.1106 89.3838 18.5474 88.0318 18.5474C86.1649 18.5474 84.8372 20.1625 84.8372 22.1208V22.1693C84.8372 24.2003 86.1385 25.7912 88.1797 25.7912C89.4324 25.7912 90.2919 25.2522 91.202 24.3962L93.3892 26.5988C92.1122 27.9939 90.6365 28.9973 88.0074 28.9973C84.0527 28.9953 81.152 25.9366 81.152 22.2177Z" fill="white"/>
<path d="M95.8946 10.8369H99.825V14.1399H95.8946V10.8369ZM95.9939 15.5854H99.7277V28.7023H95.9939V15.5854Z" fill="white"/>
<path d="M102.454 24.933V24.8845C102.454 22.0459 104.641 20.6993 107.761 20.6993C109.113 20.6993 110.021 20.9194 110.98 21.2383V21.0183C110.98 19.4516 110.021 18.6198 108.154 18.6198C106.705 18.6198 105.722 18.8641 104.518 19.3284L103.583 16.4898C105.032 15.8781 106.457 15.438 108.693 15.438C110.757 15.438 112.182 15.9528 113.141 16.9057C114.124 17.8849 114.566 19.3284 114.566 21.091V28.7023H110.953V27.283C110.043 28.2864 108.815 28.9466 106.972 28.9466C104.495 28.9466 102.454 27.5515 102.454 24.933ZM111.03 24.0769V23.4168C110.368 23.122 109.557 22.9282 108.647 22.9282C107.049 22.9282 106.066 23.5641 106.066 24.7391V24.7876C106.066 25.791 106.901 26.3785 108.105 26.3785C109.875 26.3765 111.03 25.4478 111.03 24.0769Z" fill="white"/>
<path d="M117.959 10.8369H121.693V28.7023H117.959V10.8369Z" fill="white"/>
<path d="M124.125 11.5718H128.303L132.799 23.6368L137.295 11.5718H141.373L134.42 28.8255H131.078L124.125 11.5718Z" fill="white"/>
<path d="M143.218 10.8369H147.148V14.1399H143.218V10.8369ZM143.315 15.5854H147.049V28.7023H143.315V15.5854Z" fill="white"/>
<path d="M154.297 26.9883V28.7023H150.564V10.8369H154.297V17.4691C155.207 16.2214 156.436 15.3391 158.4 15.3391C161.471 15.3391 164.396 17.7376 164.396 22.1186V22.1671C164.396 26.5481 161.522 28.9466 158.4 28.9466C156.412 28.9466 155.183 28.0421 154.297 26.9883ZM160.662 22.1671V22.1186C160.662 19.9402 159.189 18.4967 157.443 18.4967C155.698 18.4967 154.249 19.9402 154.249 22.1186V22.1671C154.249 24.3455 155.698 25.789 157.443 25.789C159.189 25.789 160.662 24.3697 160.662 22.1671Z" fill="white"/>
<path d="M166.51 22.2177V22.1693C166.51 18.4242 169.188 15.3413 173.021 15.3413C177.42 15.3413 179.434 18.7432 179.434 22.462C179.434 22.7568 179.41 23.0738 179.386 23.4412H170.222C170.591 25.129 171.77 26.0113 173.441 26.0113C174.693 26.0113 175.577 25.6196 176.635 24.6647L178.774 26.5483C177.521 28.0908 175.776 28.9953 173.392 28.9953C169.433 28.9953 166.51 26.2293 166.51 22.2177ZM175.798 21.1154C175.577 19.4518 174.594 18.3253 173.021 18.3253C171.448 18.3253 170.465 19.4276 170.171 21.1154H175.798Z" fill="white"/>
<path d="M20.8358 40.2568C32.0308 40.2568 41.1061 31.2178 41.1061 20.0676C41.1061 8.91743 32.0308 -0.121582 20.8358 -0.121582C9.64083 -0.121582 0.565521 8.91743 0.565521 20.0676C0.565521 31.2178 9.64083 40.2568 20.8358 40.2568Z" fill="#2FABF7"/>
<path d="M19.7108 12.1656C20.5256 12.5794 20.8479 13.5727 20.4324 14.3844L14.406 26.1324C13.9905 26.944 12.9932 27.2651 12.1783 26.8512C11.3635 26.4373 11.0412 25.444 11.4567 24.6324L17.4831 12.8843C17.8986 12.0727 18.8959 11.7517 19.7108 12.1656Z" fill="white"/>
<path d="M25.0419 16.0137C25.8567 16.4276 26.179 17.4209 25.7635 18.2325L21.8554 25.8499C21.4398 26.6615 20.4425 26.9825 19.6277 26.5686C18.8128 26.1547 18.4905 25.1614 18.9061 24.3498L22.8142 16.7324C23.2317 15.9208 24.229 15.5998 25.0419 16.0137Z" fill="white"/>
<path d="M29.6959 21.5112C30.5108 21.9251 30.8331 22.9184 30.4176 23.73L29.3007 25.9084C28.8851 26.72 27.8878 27.041 27.073 26.6271C26.2581 26.2132 25.9358 25.2199 26.3513 24.4083L27.4682 22.2299C27.8858 21.4183 28.8831 21.0953 29.6959 21.5112Z" fill="white"/>
</g>
<defs>
<clipPath id="clip0_45_440">
<rect width="180" height="40.1351" fill="white"/>
</clipPath>
</defs>
</svg>
