<svg width="42" height="42" viewBox="0 0 42 42" fill="none" xmlns="http://www.w3.org/2000/svg">
<path d="M20.8358 41.1892C32.0308 41.1892 41.1061 32.1502 41.1061 21C41.1061 9.84982 32.0308 0.81081 20.8358 0.81081C9.64083 0.81081 0.565521 9.84982 0.565521 21C0.565521 32.1502 9.64083 41.1892 20.8358 41.1892Z" fill="#2FABF7"/>
<path d="M19.7108 13.0979C20.5256 13.5118 20.8479 14.5051 20.4324 15.3167L14.406 27.0648C13.9905 27.8764 12.9932 28.1974 12.1783 27.7836C11.3635 27.3697 11.0412 26.3764 11.4567 25.5648L17.4831 13.8167C17.8986 13.0051 18.8959 12.6841 19.7108 13.0979Z" fill="white"/>
<path d="M25.0419 16.946C25.8567 17.3599 26.179 18.3532 25.7635 19.1648L21.8554 26.7822C21.4398 27.5938 20.4425 27.9148 19.6277 27.5009C18.8128 27.087 18.4905 26.0937 18.9061 25.2821L22.8142 17.6647C23.2317 16.8531 24.229 16.5321 25.0419 16.946Z" fill="white"/>
<path d="M29.6959 22.4435C30.5108 22.8574 30.8331 23.8507 30.4176 24.6623L29.3007 26.8407C28.8851 27.6523 27.8878 27.9733 27.073 27.5595C26.2581 27.1456 25.9358 26.1523 26.3513 25.3407L27.4682 23.1623C27.8858 22.3507 28.8831 22.0276 29.6959 22.4435Z" fill="white"/>
</svg>
