<svg width="180" height="42" viewBox="0 0 180 42" fill="none" xmlns="http://www.w3.org/2000/svg">
<g clip-path="url(#clip0_5_24)">
<path d="M48.9649 27.1375L51.2007 24.4705C52.7737 25.7424 54.371 26.55 56.3351 26.55C57.9081 26.55 58.8162 25.9383 58.8162 24.9349V24.8864C58.8162 23.9315 58.2264 23.4187 55.352 22.708C51.8635 21.852 49.652 20.8486 49.652 17.4709V17.4225C49.652 14.3154 52.1331 12.2581 55.6723 12.2581C58.2041 12.2581 60.2919 13.0414 62.0615 14.4365L60.0953 17.2751C58.5466 16.2232 57.0973 15.5873 55.6237 15.5873C54.15 15.5873 53.4122 16.2232 53.4122 17.0793V17.1277C53.4122 18.2785 54.15 18.5955 57.1216 19.3788C60.6101 20.3095 62.5764 21.533 62.5764 24.519V24.5674C62.5764 27.9693 59.9716 29.8772 56.2622 29.8772C53.6351 29.8792 51.0304 28.999 48.9649 27.1375Z" fill="#1B1C1E"/>
<path d="M64.8385 23.1502V23.1017C64.8385 19.3324 67.8852 16.2737 71.9879 16.2737C76.0419 16.2737 79.0885 19.2597 79.0885 23.0532V23.1017C79.0885 26.871 76.0419 29.9297 71.9392 29.9297C67.8852 29.9277 64.8385 26.9417 64.8385 23.1502ZM75.4034 23.1502V23.1017C75.4034 21.1676 74.0027 19.4798 71.9392 19.4798C69.8007 19.4798 68.5237 21.0949 68.5237 23.0532V23.1017C68.5237 25.0358 69.9243 26.7236 71.9879 26.7236C74.1264 26.7216 75.4034 25.1065 75.4034 23.1502Z" fill="#1B1C1E"/>
<path d="M81.152 23.1502V23.1017C81.152 19.3566 84.0264 16.2737 88.0561 16.2737C90.5372 16.2737 92.0615 17.1055 93.3142 18.4764L91.0297 20.9233C90.1703 20.043 89.3838 19.4798 88.0318 19.4798C86.1649 19.4798 84.8372 21.0949 84.8372 23.0532V23.1017C84.8372 25.1327 86.1385 26.7236 88.1797 26.7236C89.4324 26.7236 90.2919 26.1846 91.202 25.3286L93.3892 27.5312C92.1122 28.9263 90.6365 29.9297 88.0074 29.9297C84.0527 29.9277 81.152 26.869 81.152 23.1502Z" fill="#1B1C1E"/>
<path d="M95.8946 11.7695H99.825V15.0725H95.8946V11.7695ZM95.9939 16.518H99.7277V29.6349H95.9939V16.518Z" fill="#1B1C1E"/>
<path d="M102.454 25.8656V25.8171C102.454 22.9785 104.641 21.6319 107.761 21.6319C109.113 21.6319 110.021 21.852 110.98 22.171V21.9509C110.98 20.3842 110.021 19.5524 108.154 19.5524C106.705 19.5524 105.722 19.7967 104.518 20.2611L103.583 17.4225C105.032 16.8107 106.457 16.3706 108.693 16.3706C110.757 16.3706 112.182 16.8854 113.141 17.8384C114.124 18.8176 114.566 20.2611 114.566 22.0236V29.6349H110.953V28.2156C110.043 29.219 108.815 29.8792 106.972 29.8792C104.495 29.8792 102.454 28.4841 102.454 25.8656ZM111.03 25.0096V24.3494C110.368 24.0546 109.557 23.8608 108.647 23.8608C107.049 23.8608 106.066 24.4968 106.066 25.6718V25.7202C106.066 26.7236 106.901 27.3111 108.105 27.3111C109.875 27.3091 111.03 26.3804 111.03 25.0096Z" fill="#1B1C1E"/>
<path d="M117.959 11.7695H121.693V29.6349H117.959V11.7695Z" fill="#1B1C1E"/>
<path d="M124.125 12.5044H128.303L132.799 24.5694L137.295 12.5044H141.373L134.42 29.7581H131.078L124.125 12.5044Z" fill="#1B1C1E"/>
<path d="M143.218 11.7695H147.148V15.0725H143.218V11.7695ZM143.315 16.518H147.049V29.6349H143.315V16.518Z" fill="#1B1C1E"/>
<path d="M154.297 27.9209V29.6349H150.564V11.7695H154.297V18.4017C155.207 17.154 156.436 16.2717 158.4 16.2717C161.471 16.2717 164.396 18.6702 164.396 23.0512V23.0997C164.396 27.4807 161.522 29.8792 158.4 29.8792C156.412 29.8792 155.183 28.9747 154.297 27.9209ZM160.662 23.0997V23.0512C160.662 20.8728 159.189 19.4293 157.443 19.4293C155.698 19.4293 154.249 20.8728 154.249 23.0512V23.0997C154.249 25.2781 155.698 26.7216 157.443 26.7216C159.189 26.7216 160.662 25.3023 160.662 23.0997Z" fill="#1B1C1E"/>
<path d="M166.51 23.1501V23.1017C166.51 19.3566 169.188 16.2737 173.021 16.2737C177.42 16.2737 179.434 19.6756 179.434 23.3944C179.434 23.6892 179.41 24.0062 179.386 24.3736H170.222C170.591 26.0614 171.77 26.9437 173.441 26.9437C174.693 26.9437 175.577 26.552 176.635 25.5971L178.774 27.4807C177.521 29.0232 175.776 29.9277 173.392 29.9277C169.433 29.9277 166.51 27.1617 166.51 23.1501ZM175.798 22.0478C175.577 20.3842 174.594 19.2577 173.021 19.2577C171.448 19.2577 170.465 20.36 170.171 22.0478H175.798Z" fill="#1B1C1E"/>
<path d="M20.8358 41.1892C32.0308 41.1892 41.1061 32.1502 41.1061 21C41.1061 9.84982 32.0308 0.81081 20.8358 0.81081C9.64083 0.81081 0.565521 9.84982 0.565521 21C0.565521 32.1502 9.64083 41.1892 20.8358 41.1892Z" fill="#2FABF7"/>
<path d="M19.7108 13.0979C20.5256 13.5118 20.8479 14.5051 20.4324 15.3167L14.406 27.0648C13.9905 27.8764 12.9932 28.1974 12.1783 27.7836C11.3635 27.3697 11.0412 26.3764 11.4567 25.5648L17.4831 13.8167C17.8986 13.0051 18.8959 12.6841 19.7108 13.0979Z" fill="white"/>
<path d="M25.0419 16.946C25.8567 17.3599 26.179 18.3532 25.7635 19.1648L21.8554 26.7822C21.4398 27.5938 20.4425 27.9148 19.6277 27.5009C18.8128 27.087 18.4905 26.0937 18.9061 25.2821L22.8142 17.6647C23.2317 16.8531 24.229 16.5321 25.0419 16.946Z" fill="white"/>
<path d="M29.6959 22.4435C30.5108 22.8574 30.8331 23.8507 30.4176 24.6623L29.3007 26.8407C28.8851 27.6523 27.8878 27.9733 27.073 27.5595C26.2581 27.1456 25.9358 26.1523 26.3513 25.3407L27.4682 23.1623C27.8858 22.3507 28.8831 22.0276 29.6959 22.4435Z" fill="white"/>
</g>
<defs>
<clipPath id="clip0_5_24">
<rect width="180" height="40.1351" fill="white" transform="translate(0 0.932432)"/>
</clipPath>
</defs>
</svg>
