<svg width="20" height="20" viewBox="0 0 20 20" fill="none" xmlns="http://www.w3.org/2000/svg">
<g clip-path="url(#clip0_23_227)">
<path d="M11.6668 7.9167C11.6668 8.83587 10.9193 9.58337 10.0001 9.58337C9.08096 9.58337 8.33346 8.83587 8.33346 7.9167C8.33346 6.99754 9.08096 6.25004 10.0001 6.25004C10.9193 6.25004 11.6668 6.99754 11.6668 7.9167ZM17.6401 6.84754C17.441 6.48837 17.176 6.21337 16.8751 6.01837C16.3385 5.6717 16.0526 5.0342 16.1943 4.4117C16.2751 4.0542 16.2701 3.6642 16.1543 3.26087C15.9493 2.54504 15.366 1.9617 14.6501 1.7567C14.2468 1.64087 13.8568 1.63587 13.5001 1.7167C12.8768 1.85837 12.2393 1.57337 11.8926 1.03587C11.6985 0.735036 11.4226 0.470036 11.0643 0.270869C10.4126 -0.0899642 9.58846 -0.0899642 8.93679 0.270869C8.57763 0.470036 8.30263 0.735036 8.10846 1.03587C7.76179 1.57254 7.12429 1.85837 6.50096 1.7167C6.14429 1.63587 5.75429 1.64087 5.35096 1.7567C4.63513 1.9617 4.05179 2.54504 3.84679 3.26087C3.73096 3.6642 3.72596 4.05504 3.80679 4.4117C3.94846 5.03504 3.66263 5.67254 3.12596 6.01837C2.82429 6.21254 2.56013 6.48837 2.36096 6.84754C2.17846 7.17587 2.09013 7.5492 2.09179 7.9217C2.09013 8.2942 2.17929 8.6667 2.36096 8.99587C2.56013 9.35504 2.82513 9.63004 3.12596 9.82504C3.66263 10.1717 3.94846 10.8092 3.80679 11.4317C3.72596 11.7892 3.73096 12.1792 3.84679 12.5834C4.05179 13.2992 4.63513 13.8825 5.35096 14.0875C5.75429 14.2034 6.14429 14.2084 6.50096 14.1275C7.12429 13.9859 7.76179 14.2709 8.10846 14.8084C8.30263 15.1092 8.57763 15.3742 8.93679 15.5734C9.58846 15.9342 10.4135 15.9342 11.0643 15.5734C11.4235 15.3742 11.6985 15.1092 11.8926 14.8084C12.2393 14.2717 12.8768 13.9859 13.5001 14.1275C13.8568 14.2084 14.2468 14.2034 14.6501 14.0875C15.366 13.8825 15.9493 13.2992 16.1543 12.5834C16.2701 12.18 16.2751 11.7892 16.1943 11.4317C16.0526 10.8084 16.3385 10.1709 16.8751 9.82504C17.1768 9.63087 17.441 9.35504 17.6401 8.99587C17.8226 8.66754 17.911 8.2942 17.9093 7.9217C17.911 7.5492 17.8218 7.1767 17.6401 6.84754ZM9.99096 11.2517C8.15263 11.2517 6.65763 9.7567 6.65763 7.91837C6.65763 6.08004 8.15263 4.58504 9.99096 4.58504C11.8293 4.58504 13.3243 6.08004 13.3243 7.91837C13.3243 9.7567 11.8293 11.2517 9.99096 11.2517ZM6.75096 15.7767C6.14596 15.895 5.50429 15.865 4.89179 15.6892C3.70596 15.3492 2.74263 14.4417 2.32429 13.2892L0.295127 15.3184C0.134294 15.48 0.0317938 15.6942 0.00679375 15.9225C-0.0540396 16.4784 0.347627 16.98 0.903461 17.0409L2.75429 17.2459L2.95846 19.0892C2.98179 19.3259 3.08763 19.5409 3.24929 19.7025C3.35513 19.8084 3.48429 19.8909 3.63013 19.9417C4.00013 20.0742 4.41429 19.9784 4.68263 19.7034L7.65846 16.7275C7.30179 16.4617 6.99763 16.1442 6.75013 15.7775L6.75096 15.7767ZM19.9943 15.9217C19.9693 15.6942 19.8668 15.4792 19.706 15.3175L17.6768 13.2884C17.2585 14.4409 16.2943 15.3492 15.1093 15.6884C14.496 15.8634 13.856 15.8934 13.2501 15.7759C13.0035 16.1425 12.6985 16.46 12.3418 16.7259L15.3176 19.7017C15.5868 19.9767 16.001 20.0725 16.3701 19.94C16.516 19.8892 16.6451 19.8067 16.751 19.7009C16.9126 19.5392 17.0185 19.3234 17.0418 19.0875L17.246 17.2442L19.0968 17.0392C19.6526 16.9775 20.0543 16.4767 19.9935 15.9209L19.9943 15.9217Z" fill="#FFC935"/>
</g>
<defs>
<clipPath id="clip0_23_227">
<rect width="20" height="20" fill="white"/>
</clipPath>
</defs>
</svg>
