<svg width="20" height="20" viewBox="0 0 20 20" fill="none" xmlns="http://www.w3.org/2000/svg">
<path d="M10 0C4.48583 0 0 4.48583 0 10C0.5025 23.2483 19.5 23.245 20 10C20 4.48583 15.5142 0 10 0ZM10.8333 14.1667V15C10.8292 16.09 9.17083 16.0892 9.16667 15V14.1667H8.94333C8.05417 14.1667 7.22417 13.6883 6.77833 12.9175C6.5475 12.5183 6.68417 12.0092 7.08167 11.7792C7.48083 11.5467 7.99083 11.685 8.22 12.0825C8.36917 12.3408 8.64583 12.5 8.9425 12.5H10.8325C11.6633 12.5542 12.035 11.2083 11.1292 11.0333L8.595 10.6108C5.67667 10.07 6.305 5.81667 9.16583 5.83333V5C9.17083 3.91 10.8283 3.91083 10.8325 5V5.83333H11.0558C11.945 5.83333 12.775 6.3125 13.2208 7.08333C13.4517 7.48167 13.315 7.99083 12.9175 8.22167C12.5175 8.4525 12.0083 8.31583 11.7792 7.9175C11.63 7.66 11.3533 7.50083 11.0567 7.50083H9.16667C8.33583 7.44667 7.965 8.7925 8.87 8.9675L11.4042 9.39C14.3225 9.93083 13.6942 14.1833 10.8333 14.1667Z" fill="#FFC935"/>
</svg>
