<svg width="20" height="20" viewBox="0 0 20 20" fill="none" xmlns="http://www.w3.org/2000/svg">
<path d="M15.945 9.64084C15.945 9.32751 15.7692 9.04001 15.4892 8.89751C14.7725 8.53251 14.005 8.19667 13.145 7.87001C11.7233 7.32501 10.6875 6.27334 10.1492 4.83251C9.82667 3.95834 9.495 3.18001 9.13583 2.45334C8.995 2.17001 8.705 1.99001 8.38917 1.99001C8.07333 1.99001 7.78167 2.17001 7.6425 2.45417C7.28417 3.17834 6.95333 3.95667 6.63083 4.82917C6.0925 6.27251 5.05583 7.32417 3.63667 7.86834C2.77167 8.19751 2.00333 8.53334 1.28917 8.89751C1.01 9.03917 0.834167 9.32667 0.834167 9.64001C0.834167 9.95334 1.01 10.2408 1.29 10.3833C2.00833 10.7483 2.77583 11.085 3.63417 11.41C5.05583 11.955 6.09167 13.0067 6.63 14.4483C6.95417 15.3258 7.285 16.1025 7.6425 16.8267C7.78333 17.1108 8.0725 17.2908 8.38917 17.2908C8.70583 17.2908 8.99583 17.1108 9.13583 16.8267C9.495 16.1025 9.82583 15.3242 10.1475 14.4508C10.6867 13.0075 11.7242 11.9558 13.1417 11.4117C14.0033 11.085 14.7708 10.7492 15.4892 10.3842C15.7692 10.2417 15.945 9.95501 15.945 9.64084Z" fill="#FFC935"/>
<path d="M14.2466 5.45166C14.4591 5.55999 14.6683 5.64916 14.8741 5.72749C15.0466 5.79416 15.1675 5.91749 15.2325 6.08999C15.3091 6.30083 15.3966 6.51083 15.5025 6.72583C15.6416 7.01083 15.9316 7.19249 16.2491 7.19249H16.2508C16.5675 7.19249 16.8575 7.01249 16.9975 6.72833C17.1033 6.51416 17.19 6.30333 17.2675 6.09416C17.3341 5.91749 17.455 5.79416 17.6241 5.72916C17.8333 5.64999 18.0416 5.56083 18.2541 5.45249C18.5341 5.31083 18.71 5.02249 18.71 4.70916C18.71 4.39583 18.5333 4.10833 18.2533 3.96666C18.0416 3.85999 17.8333 3.77083 17.6266 3.69166C17.455 3.62583 17.3341 3.50249 17.2683 3.32749C17.19 3.11666 17.1033 2.90583 16.9966 2.69083C16.8566 2.40749 16.5666 2.22749 16.25 2.22749H16.2483C15.9308 2.22749 15.6416 2.40833 15.5016 2.69333C15.3966 2.90749 15.3091 3.11833 15.2333 3.32499C15.1666 3.50166 15.0458 3.62499 14.8766 3.68999C14.6666 3.76999 14.4583 3.85833 14.2458 3.96666C13.9658 4.10833 13.79 4.39583 13.79 4.70916C13.79 5.02249 13.9658 5.30999 14.2458 5.45166H14.2466Z" fill="#FFC935"/>
<path d="M18.7108 14.3208C18.4466 14.1867 18.1858 14.075 17.9291 13.9783C17.6466 13.87 17.4408 13.66 17.335 13.375C17.2375 13.1117 17.1283 12.8483 16.9966 12.5817C16.8558 12.2975 16.5658 12.1175 16.25 12.1175C15.9325 12.1175 15.6425 12.2983 15.5033 12.5833C15.3725 12.85 15.2633 13.1125 15.1683 13.3708C15.06 13.66 14.8541 13.87 14.5758 13.9767C14.3158 14.075 14.0541 14.1867 13.7908 14.3217C13.5116 14.4642 13.3358 14.7508 13.3358 15.0642C13.3358 15.3775 13.5116 15.6642 13.7908 15.8067C14.0541 15.9408 14.3141 16.0517 14.5733 16.1508C14.8541 16.2583 15.06 16.4675 15.1666 16.7533C15.2633 17.0158 15.3725 17.2792 15.5041 17.545C15.6441 17.8292 15.9333 18.0092 16.2508 18.01C16.5675 18.01 16.8566 17.8308 16.9975 17.5467C17.13 17.28 17.2391 17.0167 17.3358 16.7558C17.4425 16.4675 17.6483 16.2583 17.9291 16.1508C18.1891 16.0517 18.4483 15.9417 18.7116 15.8075C18.9916 15.665 19.1675 15.3775 19.1675 15.0642C19.1675 14.7508 18.9916 14.4633 18.7116 14.3208H18.7108Z" fill="#FFC935"/>
</svg>
